<svg width="1637" height="2210" viewBox="0 0 1637 2210" fill="none" xmlns="http://www.w3.org/2000/svg">
<path fill-rule="evenodd" clip-rule="evenodd" d="M1271.78 1249.61C1251.78 1154.81 1180.84 1081.25 1085.43 1044.6C1067.09 1034.22 1049.32 989.696 1024.67 981.545C1020.72 980.236 1026.95 990.638 1024.67 991.258C1016.52 993.475 1007.38 993.707 998.386 985.706C982.302 971.403 977.255 929.625 967.474 910.738C915.902 811.147 787.124 850.115 769.874 960.21C757.842 968.054 740.838 974.963 727.749 981.286C714.264 987.793 702.403 1003.56 688.509 1009.19C676.11 1014.22 655.681 1010.66 643.188 1015.04C585.729 1035.2 537.063 1060.65 498.908 1112.2C490.869 1123.07 481.807 1136.44 474.491 1147.42C436.773 1190.86 410.575 1239.54 386.447 1291.78C318.941 1445.09 300.579 1614.85 284.105 1780.03C284.48 1808.93 265.309 1889.08 293.663 1902.93C291.969 1904.69 292.583 1908.22 295.727 1908.19C367.624 1907.46 439.354 1913.9 510.136 1926.41C544.286 1932.45 578.254 1940.73 613.04 1942.1C685.248 1941.59 757.201 1929.49 829.318 1940.94C916.011 1940.94 1021.37 1938.42 1117.83 1934.71C1207.96 1931.24 1298.58 1939.07 1387.61 1923.73C1394.66 1922.62 1398.09 1914.02 1396.62 1907.86C1386.17 1869.79 1381.05 1830.6 1375.18 1791.64C1376.36 1766.64 1374.26 1740.55 1365.02 1717.27C1340.87 1560.11 1309.91 1403.98 1271.78 1249.61Z" fill="#D08B5B"/>
<path fill-rule="evenodd" clip-rule="evenodd" d="M1024.67 991.837C1026.95 991.216 1020.72 980.808 1024.67 982.118C1049.32 990.275 1067.09 1034.79 1085.43 1045.18C1180.84 1081.82 1251.78 1155.38 1271.78 1250.18C1309.91 1404.55 1340.87 1560.69 1365.03 1717.85C1374.27 1741.13 1376.35 1767.22 1375.19 1792.21L1376.11 1798.37C1381.6 1835.3 1386.72 1872.37 1396.62 1908.43C1398.09 1914.6 1394.65 1923.19 1387.61 1924.31C1299.59 1939.47 1210.02 1931.99 1120.89 1935.17L1102.32 1935.87C1010.19 1939.25 911.392 1941.52 829.317 1941.52C757.2 1930.06 685.254 1942.17 613.041 1942.67C578.255 1941.3 544.287 1933.02 510.136 1926.99C439.355 1914.47 367.625 1908.04 295.728 1908.76C292.583 1908.8 291.969 1905.26 293.664 1903.5C265.31 1889.65 284.481 1809.5 284.106 1780.6L285.595 1765.72C301.726 1605.25 320.966 1441.06 386.448 1292.35L388.409 1288.13C412 1237.49 437.793 1190.26 474.491 1148L476.736 1144.64C483.61 1134.37 491.673 1122.56 498.909 1112.78C537.063 1061.23 585.729 1035.78 643.189 1015.61C655.682 1011.24 676.11 1014.8 688.508 1009.77C701.501 1004.5 712.721 990.364 725.149 983.236V1036.42L904.987 1213.66L1006.99 1057.19L1017.36 993.106C1019.86 992.949 1022.31 992.478 1024.67 991.837Z" fill="#8FA7DF"/>
<path fill-rule="evenodd" clip-rule="evenodd" d="M1242.69 1456.19C1240.79 1465.42 1238.13 1474.66 1234.58 1483.42C1231.16 1491.87 1226.02 1499.43 1222.48 1507.78C1222 1508.91 1221.23 1509.75 1220.28 1510.4L1220.58 1512.67L1220.85 1514.94C1222.62 1530.27 1224.6 1545.55 1226.33 1560.87L1227.16 1568.53C1230.54 1600.52 1235.89 1632.35 1240.04 1664.25C1244.1 1695.49 1248.24 1726.73 1252.66 1757.92C1257.23 1790.09 1261.89 1822.2 1267.32 1854.24C1269.61 1867.76 1272.01 1881.28 1274.5 1894.79L1276.43 1905.12C1296.25 1909.9 1301.68 1937.55 1281.49 1947.75C1272.32 1952.36 1260.55 1951.26 1253 1944.01C1245.15 1936.45 1244.83 1922.82 1243 1912.59L1241.24 1903.08C1228.11 1831.57 1216.72 1759.24 1211.4 1686.72C1210.03 1668 1208.87 1649.26 1208.12 1630.5C1207.41 1612.86 1207.75 1595.22 1207.48 1577.58L1207.39 1572.77C1206.97 1553.95 1207.32 1535.17 1207.81 1516.35C1207.86 1514.06 1207.97 1511.77 1208.08 1509.46C1207.42 1508.69 1206.94 1507.77 1206.74 1506.87L1206.48 1505.69C1205.83 1502.64 1206.57 1499.08 1208.9 1496.91C1209.91 1484.09 1211.23 1471.29 1211.59 1458.49C1211.63 1457.44 1213.14 1457.47 1213.22 1458.49C1214.08 1469.39 1215.78 1480.32 1217.47 1491.23C1228.41 1482.43 1236.5 1467.93 1241.27 1455.8C1241.61 1454.92 1242.9 1455.23 1242.69 1456.19ZM983.915 946.698C985.729 954.999 989.317 962.454 994.133 969.391C996.424 972.706 999.03 975.789 1002.15 978.374C1004.84 980.577 1007.9 982.016 1010.75 983.933C1014.9 983.285 1019.23 984.86 1022.15 987.916L1021.68 983.449C1021.54 982.003 1023.93 981.716 1024.21 983.114C1036.81 1046.72 1048.31 1110.36 1058.26 1174.43L1062.63 1202.72L1066.73 1229.29C1073.55 1273.54 1080.14 1317.79 1085.1 1362.37C1091.72 1421.86 1097.28 1481.51 1101.34 1541.25C1105.42 1601.41 1107.93 1661.61 1109.72 1721.89C1110.16 1737.08 1110.64 1752.26 1111.1 1767.45L1114.18 1749.28C1117.25 1731.11 1120.26 1712.93 1122.84 1694.68C1132.11 1629.36 1139.52 1563.58 1143.13 1497.71C1146.45 1437.42 1145.34 1375.93 1130 1317.2C1126.14 1302.42 1121.42 1287.88 1115.71 1273.71C1110.18 1259.92 1102.62 1247.16 1096.68 1233.58C1089.75 1217.78 1087.68 1202.87 1091.24 1185.86C1094.36 1171.04 1099.81 1157.1 1100.8 1141.85C1102.62 1113.54 1093.42 1086.12 1080.41 1061.34C1076.97 1054.8 1073.36 1048.36 1069.58 1041.97C1058.16 1022.67 1045.28 1004.07 1031.9 986.245C1031.18 985.29 1032.7 984.24 1033.49 985.017C1045.68 997.07 1059.01 1008.92 1069.97 1022.08C1075.3 1028.48 1080.5 1035.01 1085.44 1041.71C1139.51 1050.76 1185.96 1084.44 1217.72 1128.93C1253.76 1179.42 1271.99 1240.18 1285.48 1300.02C1300.48 1366.52 1313.13 1433.62 1326.61 1500.45C1340.55 1569.61 1354.43 1638.76 1368.47 1707.9C1375.44 1742.23 1382.42 1776.55 1389.37 1810.88C1392.91 1828.27 1396.61 1845.62 1400.48 1862.94C1402.48 1871.82 1404.6 1880.69 1406.45 1889.6C1408.53 1899.64 1406.6 1906.08 1399.79 1913.46C1397.28 1916.2 1393.32 1916.15 1390.21 1914.7L1389.24 1914.24L1388.29 1913.78C1384.45 1911.89 1381.43 1909.93 1379.03 1905.71C1376.39 1901.09 1375.97 1895.95 1375.07 1890.81C1373.39 1881.34 1371.73 1871.87 1370.06 1862.38C1367.57 1848.19 1364.85 1834.05 1362.09 1819.91L1348.22 1749.24C1344.52 1730.4 1340.82 1711.55 1337.09 1692.72C1323.79 1625.37 1310.48 1558.04 1297.16 1490.69C1284.38 1426.04 1273.07 1360.94 1258.51 1296.65L1257.69 1293.04L1256.84 1289.42C1243.84 1234.01 1225.65 1180.4 1192.66 1133.45C1167.27 1097.33 1132.01 1065.08 1090.48 1048.76C1093.4 1052.97 1096.21 1057.27 1098.89 1061.65C1115.73 1089.16 1128.02 1121.81 1125.13 1154.56C1123.72 1170.56 1117.64 1186.29 1118.22 1202.42C1118.75 1216.76 1127.62 1229.34 1133.74 1241.81C1147.64 1270.06 1157.7 1300.09 1164.19 1330.89C1177.2 1392.75 1177.16 1456.4 1172.67 1519.2C1167.8 1587.45 1158.56 1655.7 1148.02 1723.3C1142.62 1757.97 1135.43 1792.34 1129.92 1826.96C1127.19 1844.03 1123.49 1861.05 1120.25 1878.04L1118.7 1886.15C1117.84 1890.65 1116.94 1895.14 1115.91 1899.58L1115.26 1902.24V1902.71C1115.24 1905.99 1114.34 1908.7 1112.9 1910.86C1110.93 1917.19 1108.48 1923.36 1105.22 1929.29C1103.55 1932.31 1101.12 1934.01 1098.49 1934.63C1095.84 1940.7 1089.83 1945.37 1082.65 1945.34L988.28 1944.98C933.461 1944.76 878.649 1944.4 823.83 1944.1C809.997 1944.03 796.178 1943.77 782.359 1943.41C769.407 1943.05 756.986 1941.5 744.17 1939.88C729.703 1938.07 721.866 1927.81 724.028 1913.35C724.505 1910.17 725.017 1907 725.515 1903.82C722.629 1904.78 719.199 1904.33 716.879 1902.06L714.704 1899.94C711.689 1896.96 708.995 1894.02 707.078 1890.04C705.107 1885.95 703.504 1881.62 701.764 1877.44C697.999 1868.45 694.343 1859.43 690.783 1850.36C683.648 1832.22 676.517 1814.01 669.887 1795.69C656.76 1759.41 645.144 1722.57 635.044 1685.33C617.031 1618.87 604.003 1551.13 595.789 1482.78L593.825 1466.49L593.255 1461.68C590.139 1435.19 587.518 1408.29 588.757 1381.85C589.522 1365.31 592.085 1348.63 598.269 1333.17C603.974 1318.92 612.779 1306.72 621.151 1293.98L622.109 1292.51L623.073 1291C630.395 1279.42 636.22 1267.32 636.512 1253.27C636.808 1239 632.654 1225.12 628.009 1211.76L626.852 1208.47L626.075 1206.29C616.194 1178.69 604.949 1151.48 608.657 1121.45C614.134 1077.22 640.936 1041.57 674.658 1014.08C644.669 1020.02 614.985 1031.75 588.787 1046.63C557.847 1064.22 529.992 1087.43 505.97 1113.62C460.578 1163.12 428.169 1222.52 401.642 1283.84C373.872 1348.02 353.28 1415.28 337.761 1483.4C322.155 1551.92 311.708 1621.54 304.573 1691.42C301.015 1726.21 298.218 1761.08 295.9 1795.97C294.718 1813.84 293.825 1831.75 292.441 1849.59C291.058 1867.43 290.437 1885.53 286.085 1902.89C284.053 1910.97 270.349 1911.8 268.88 1902.89C265.622 1882.99 266.533 1862.42 267.442 1842.27L267.524 1840.44C268.419 1820.37 269.587 1800.32 270.969 1780.27C273.795 1739.29 277.569 1698.35 282.497 1657.56C299.775 1514.35 331.637 1371.9 394.134 1241.17C423.56 1179.6 461.329 1119.78 513.868 1075.32C538.883 1054.17 567.084 1037.29 597.475 1025.06C624.654 1014.12 652.264 1008.94 681.142 1008.96C695.626 997.861 711.17 988.189 726.708 979.929C727.643 979.424 728.625 980.632 727.847 981.416C727.445 981.805 727.049 982.207 726.647 982.582C728.407 982.698 730.221 983.517 731.851 985.236C737.56 991.218 742.369 998.7 746.68 1006.47C753.235 1014.65 759.489 1023.12 766.03 1031.22C776.507 1044.19 787.229 1056.98 798.081 1069.66C816.307 1090.99 835.125 1111.91 854.749 1131.98L858.03 1135.31C868.2 1145.63 878.506 1157.96 890.538 1166.12L891.179 1166.55C896.254 1169.86 899.855 1170.46 904.18 1165.52C908.115 1161.02 911.396 1155.8 914.759 1150.85L915.536 1149.71C932.732 1124.72 948.665 1098.82 963.091 1072.15C969.666 1060.01 975.921 1047.69 981.855 1035.25L983.629 1031.51C986.855 1024.65 990.354 1017.91 993.021 1010.85C993.642 1009.19 994.249 1007.53 994.835 1005.89C985.757 999.935 978.724 987.05 976.18 976.962C973.527 966.478 974.864 955.722 979.591 946.139C980.484 944.338 983.479 944.781 983.915 946.698ZM536.061 1372.58C534.805 1412.43 534.042 1452.32 532.168 1492.14L531.521 1505.73C534.445 1508.99 536.159 1512.75 534.79 1517.92C534.258 1519.89 532.686 1521.67 530.727 1522.34L530.115 1534.97C527.335 1591.84 524.075 1648.58 518.118 1705.3C510.668 1776.29 502.05 1847.16 493.449 1918.01C492.224 1928.05 485.248 1936 474.397 1934.53C463.418 1933.05 458.965 1923.49 460.407 1913.52C466.07 1874.45 471.515 1835.34 476.286 1796.12L481.719 1751.45C488.531 1695.61 495.503 1639.78 503.536 1584.11C506.894 1560.85 510.381 1537.59 513.881 1514.33L512.658 1512.75C507.656 1506.25 502.483 1499.89 497.367 1493.49C487.541 1481.15 477.843 1468.91 468.836 1456C468.388 1455.35 469.298 1454.39 469.945 1454.89C482.568 1464.21 494.516 1474.19 506.533 1484.32L517.053 1493.23C523.105 1453.06 529.1 1412.86 534.445 1372.58C534.576 1371.58 536.089 1371.51 536.061 1372.58ZM717.643 991.258C710.045 998.42 702.283 1005.43 694.63 1012.55L691.827 1015.17L689.037 1017.81C675.585 1030.57 662.698 1043.85 651.961 1059.1C632.248 1087.11 620.504 1121.26 628.702 1155.46C635.505 1183.78 651.111 1209.46 655.304 1238.49C657.407 1253.04 656.385 1267.65 650.908 1281.39C645.317 1295.41 636.382 1307.41 628.356 1320.06C610.919 1347.53 608.541 1377.69 610.273 1409.52C612.088 1442.76 615.905 1476.02 620.619 1508.96C630.157 1575.71 644.538 1641.76 663.574 1706.44C673.101 1738.84 684.351 1770.54 695.551 1802.36C701.13 1818.21 707.63 1833.68 714.328 1849.07C717.855 1857.18 721.477 1865.23 725.153 1873.27C723.796 1861.92 723.796 1850.25 723.134 1838.97C722.179 1822.79 720.972 1806.65 719.86 1790.49C717.602 1757.7 715.584 1724.87 713.783 1692.04C707.399 1574.99 702.699 1457.83 703.047 1340.59C703.217 1281.96 704.411 1223.32 706.935 1164.75C708.121 1137.17 710.406 1109.61 712.48 1082.07L712.917 1076.17C714.745 1051.45 716.934 1026.67 720.699 1002.16C719.581 999.648 718.619 997.097 717.903 994.492L717.643 993.509L717.828 993.537C717.657 992.773 717.602 992.009 717.643 991.258ZM783.328 890.522C783.485 889.846 784.447 889.901 784.624 890.522C788.901 904.934 787.386 920.792 783.703 935.294C781.711 943.151 778.888 950.777 775.47 958.13L774.277 960.701C771.351 966.963 768.056 973.415 762.361 977.317C759.98 978.947 755.731 979.049 753.35 977.317L752.136 976.396C751.939 976.246 751.741 976.082 751.55 975.918C749.333 974.063 748.235 969.95 749.258 967.242C751.898 960.251 757.88 955.122 762.013 948.887C765.676 943.356 768.916 937.517 771.61 931.447C777.414 918.316 780.027 904.375 783.328 890.522Z" fill="black"/>
<path fill-rule="evenodd" clip-rule="evenodd" d="M1122.56 467.742C1119.37 459.662 1113.72 449.506 1104.28 449.101C1096.98 426.72 1078.82 403.927 1053.57 404.533C979.442 328.541 886.126 332.124 788.561 348.21C737.084 357.781 684.816 376.522 646.428 413.504C600.447 457.042 582.542 533.013 618.55 588.068C587.43 604.786 586.826 644.458 600.135 673.087C584.137 684.177 583.165 711.092 601.178 719.557C600.221 723.486 600.898 727.551 602.725 731.043C593.793 738.499 582.169 744.003 572.559 748.737C568.311 750.831 565.861 754.248 564.842 758.095C533.287 778.851 454.604 829.563 455.541 869.936C455.078 890.992 470.66 904.852 489.596 910.37C478.329 932.947 469.778 959.323 480.562 983.68C483.544 991.04 505.878 1012.67 507.002 1013.06C508.968 1014.76 541.01 1000.01 556.584 992.486C559.604 1012.18 580.608 1022.5 598.714 1015.74C615.882 1010.56 626.435 995.992 637.263 982.732C651.636 1014.17 693.922 1014.53 721.253 1000.98C745.801 989.608 764.456 968.777 774.851 943.669C830.045 970.755 894.618 978.653 954.58 967.835C958.427 974.663 966.946 979.247 974.538 976.607C1006.42 966.996 1041.68 966.458 1068.71 944.44C1125.04 903.904 1129.79 829.161 1125.86 765.454C1122.37 701.932 1125.42 637.885 1113.91 575.051C1118.9 556.551 1127.22 540.196 1134.91 522.816C1143.27 504.592 1143.09 477.5 1122.56 467.742Z" fill="#D08B5B"/>
<path fill-rule="evenodd" clip-rule="evenodd" d="M866.797 341.654L868.987 341.663C872.609 341.687 876.224 341.759 879.832 341.878C898.883 342.507 918.752 344.984 941.124 349.226L944.528 349.881C950.093 350.973 955.079 352.069 963.026 353.931L978.809 357.659C986.844 359.536 992.751 360.834 998.208 361.879L998.924 362.014C998.924 362.014 1040.97 382.219 1054.55 395.512L1055.9 396.848L1056.48 397.427L1062.39 397.614L1062.45 398.361L1062.49 398.368C1068.36 399.283 1073.66 402.326 1078.59 407.065L1079.12 407.58L1079.63 408.089C1083.47 412.007 1086.54 416.181 1090.75 422.799L1091.71 424.311L1093.43 427.04L1094.82 429.232C1095.73 430.665 1096.59 432.084 1097.42 433.489L1098.24 434.89L1098.84 435.92L1114.08 444.834C1116.28 446.119 1118.27 447.781 1120.1 449.772L1120.6 450.323L1121.08 450.891L1125.24 455.845L1124.4 456.719L1124.81 457.253L1125.53 458.248L1126.24 459.258L1126.93 460.281L1127.22 460.73L1127.67 461.7L1127.89 462.185L1128.06 462.584L1128.59 462.852L1129.65 464.768C1135.14 474.708 1138.1 485.997 1138.3 497.598C1138.44 505.6 1137.45 512.867 1135.12 519.877C1133.5 524.725 1131.33 528.534 1127.59 533.778L1124.62 537.85L1124.02 538.69L1123.29 539.712C1123.18 539.877 1123.07 540.038 1122.95 540.198C1118.14 547.191 1076.98 560.425 1051.68 561.065L1050.93 561.081L1049.95 561.09C1047.54 561.1 1045.2 561.014 1042.96 560.825C1033.23 560.01 1024.13 557.957 1013.55 554.6L1011.36 553.889L999.722 549.968C999.347 549.845 999.047 549.746 998.842 549.68L997.778 549.347C995.213 548.558 993.351 548.105 992.082 547.941L991.823 547.909L991.796 548.392L991.789 548.847V549.218C991.864 554.59 988.604 558.508 983.556 561.003C980.344 562.593 976.204 563.728 970.999 564.58L970.167 564.713C961.668 566.029 951.533 566.591 934.576 566.976C933.928 566.991 933.28 566.983 932.625 566.953C928.983 566.785 926.118 566.163 920.805 564.633L918.288 563.909L916.924 563.531C914.393 562.846 912.981 562.573 911.651 562.498L911.269 562.482L910.88 562.475C909.284 562.473 908.132 562.83 906.993 563.699L906.413 564.166L898.596 570.731C897.573 571.58 896.666 572.334 895.99 572.868L895.725 573.084C884.995 581.518 874.764 586.335 862.712 586.794L861.9 586.818L861.061 586.827C860.454 586.828 859.833 586.818 859.219 586.794C854.145 586.6 848.879 584.714 841.683 581.077L840.189 580.313L839.146 579.767C838.614 579.486 838.061 579.19 837.461 578.867L832.093 575.989L829.351 574.552C826.07 572.863 824.242 572.047 823.014 571.711L822.81 571.658L822.701 571.769C819.85 574.556 817.408 578.062 814.782 582.902L814.386 583.638L813.806 584.735L810.075 592.186L809.373 593.572C806.597 598.95 804.407 602.387 801.536 605.402C797.375 609.779 792.334 612.318 786.155 612.726L785.534 612.759L784.797 612.778C781.885 612.806 778.802 612.358 775.46 611.427L774.682 611.204L773.925 610.971C768.946 609.395 761.074 610.376 754.82 613.703C748.026 617.317 744.288 622.83 744.452 629.876C744.534 633.376 744.936 637.128 745.646 641.195L745.844 642.311C746.771 647.339 748.026 652.382 749.963 659.111L754.124 673.185L754.595 674.827L755.065 676.517C755.741 678.978 756.279 681.122 756.723 683.141C758.421 690.862 758.708 696.66 757.002 701.598C749.493 723.377 736.472 734.945 721.643 735.429L721.125 735.443H720.49C709.1 735.32 698.78 727.879 698.903 718.241C698.916 717.231 699.107 716.29 699.441 715.437L699.591 715.076L699.666 714.926L699.55 714.632C696.045 706.229 687.948 700.097 678.44 698.897L677.901 698.835L677.368 698.781C676.845 698.733 676.324 698.706 675.831 698.685L675.347 698.672H674.77C662.097 698.692 649.557 707.15 639.693 720.983C637.636 723.868 635.727 727.012 634.012 730.341L633.447 731.459L630.704 737.087L628.851 742.523C618.645 772.48 623.813 803.822 643.736 820.028L644.344 820.512C651.522 826.16 659.963 829.591 668.975 830.512C670.013 830.614 671.056 830.682 672.061 830.709L672.805 830.723H673.661C676.598 830.682 679.407 830.314 681.93 829.632C683.985 829.079 685.418 828.404 686.414 827.538C686.68 827.313 686.891 827.108 687.068 826.903L687.225 826.719L687.28 826.644L700.901 828.67C703.213 843.403 709.905 858.675 720.791 876.191L721.473 877.289L722.673 879.178L723.887 881.068C736.697 900.814 750.98 917.443 766.681 930.205L767.779 931.085L769.246 932.258L770.596 933.315C773.222 935.361 775.405 936.944 777.594 938.363L778.14 938.717L783.303 941.998L780.909 947.632C775.316 960.783 767.595 972.74 758.087 982.916L757.187 983.864L750.577 990.699L745.489 984.212C745.455 984.164 745.339 984.103 745.202 984.076L745.114 984.062H745.059L744.991 984.069L744.909 984.089L744.827 984.13C741.021 986.197 738.927 987.78 735.926 990.876L735.49 991.326L734.985 991.865L734.282 992.595C731.165 995.801 727.83 998.529 724.194 1000.8C715.798 1006.05 706.48 1008.97 696.829 1009.22L695.922 1009.24H695.008C694.68 1009.24 694.353 1009.23 694.026 1009.22C673.895 1008.66 655.853 995.733 646.985 976.784C646.633 976.027 646.309 975.782 645.712 975.734L645.542 975.727L645.33 975.72C643.851 975.734 642.038 976.614 641.028 977.801L640.848 978.026L637.454 982.596L636.152 984.321C624.045 1000.26 614.104 1008.97 600.752 1011.63C599.701 1011.83 598.589 1011.96 597.408 1012.01L596.691 1012.04H596.272C590.53 1012.05 583.913 1010.38 578.754 1007.45C571.932 1003.56 567.714 997.588 568.249 990.187L568.289 989.717L568.384 988.919C568.829 984.969 565.673 982.821 563.258 984.758L563.095 984.901L562.895 985.085C552.948 994.437 541.506 1001.61 529.182 1006.04L528.092 1006.42L526.473 1006.97C518.702 1009.61 513.222 1010.91 507.451 1011.01C502.457 1011.1 498.305 1009.29 495.301 1005.82C493.298 1003.5 492.074 1000.93 490.851 997.179L490.648 996.538L490.202 995.078L489.925 994.13C486.35 981.518 486.273 968.033 489.079 953.15C491.176 942.039 494.514 931.303 500.127 916.249L501.217 913.351L503.465 907.43C503.691 906.837 502.341 904.763 501.505 904.531L501.407 904.511L500.644 904.593C500.109 904.647 499.57 904.681 499.018 904.702L498.178 904.722H497.627C479.394 904.538 465.468 886.613 465.597 867.624C465.737 849.835 474.66 834.543 491.696 816.386L493.176 814.824L494.777 813.159L496.36 811.536C511.498 796.087 526.974 782.595 543.09 771.027L544.424 770.079L545.91 769.029C551.337 765.209 556.613 761.751 563.915 757.201L568.214 754.534L585.636 733.929C586.054 733.69 586.465 733.451 586.871 733.219L587.093 726.071L603.877 726.412C599.618 724.223 596.089 721.569 593.223 718.159C583.696 706.836 584.892 691.101 596.475 683.373L596.884 683.107L601.768 680.082L605.763 683.598C609.243 686.66 612.935 688.686 616.785 689.62L617.394 689.764L620.406 690.405L620.992 691.353L621.331 690.862C621.329 690.814 621.32 690.766 621.304 690.719L621.274 690.644L621.21 690.548L620.831 690.077L620.412 689.58C619.072 687.997 617.568 686.462 614.836 683.83L612.92 681.982L611.428 680.528C607.514 676.673 605.429 674.286 603.212 670.97C597.697 662.72 594.581 653.419 594.452 643.971C594.181 624.326 606.37 605.752 624.432 597.275C625.064 596.979 625.531 594.868 624.772 593.473C607.284 561.306 602.431 522.745 611.216 486.875C619.413 453.409 639.805 423.869 669.001 401.24C719.119 362.392 788.651 342.36 862.418 341.669L864.656 341.654H866.797Z" fill="#242424"/>
<path fill-rule="evenodd" clip-rule="evenodd" d="M598.771 737.366C602.092 736.527 603.875 741.002 601.056 742.796C583.163 754.207 564.677 764.397 547.391 776.811C530.95 788.618 515.765 802.062 501.603 816.515L500.034 818.125C487.232 831.33 473.053 848.123 472.909 867.603C472.799 882.739 484.442 899.266 500.687 897.281C506.807 896.53 512.433 904.313 510.297 909.927L508.05 915.84C499.012 939.774 489.815 966.901 496.955 992.083L497.217 992.984C498.944 998.747 500.765 1003.84 507.441 1003.73C513.638 1003.62 520.086 1001.52 525.886 999.525C537.923 995.378 548.832 988.455 558.091 979.751C566.281 972.051 576.745 979.874 575.642 989.655L575.603 989.969C574.094 1000.95 591.541 1006.05 599.473 1004.48C615.134 1001.37 626.3 985.638 635.195 973.647C639.469 967.883 649.853 965.619 653.609 973.647C661.052 989.553 676.394 1001.45 694.341 1001.95C703.665 1002.2 712.608 999.545 720.506 994.607C723.726 992.595 726.611 990.201 729.25 987.486L729.905 986.797C733.82 982.643 736.521 980.433 741.514 977.719C746.439 975.045 752.803 978.36 752.775 984.192C752.735 991.749 750.525 996.776 745.327 1002.25C741.023 1006.8 735.914 1010.78 730.54 1013.96C719.749 1020.36 706.912 1023.96 694.341 1023.54C674.529 1022.88 655.618 1012.98 643.359 997.588C630.843 1012.59 615.317 1026.37 595.141 1026C580.036 1025.72 565.96 1017.85 559.216 1005.63C549.695 1012.21 539.245 1017.35 528.066 1020.72L527.07 1021.01C511.246 1025.63 493.037 1027.46 482.852 1011.71C473.289 996.933 472.576 976.457 474.767 959.555C476.725 944.46 481.358 930.123 486.678 915.983C471.533 911.448 459.778 897.185 455.74 881.818C449.632 858.566 461.482 836.023 476.132 818.752C492.046 799.988 512.076 784.116 532.255 770.222C552.381 756.376 574.927 743.355 598.771 737.366ZM1116.25 555.532C1116.29 554.887 1117.35 554.661 1117.44 555.37C1124.39 605.938 1128.42 656.403 1131.75 707.32C1133.44 733.11 1135.36 758.879 1137.46 784.641C1139.48 809.346 1142.82 834.713 1142.07 859.514C1140.88 898.358 1122.07 929.939 1091.22 952.666C1061.66 974.452 1024.99 985.215 989.008 989.764C968.109 992.411 946.924 992.534 926.004 990.051C915.145 988.762 904.294 987.05 893.653 984.471L889.049 983.319C880.673 981.17 871.315 978.258 870.121 968.306C869.541 963.49 872.092 959.937 876.219 957.515C881.594 954.364 887.76 956.219 893.298 957.659C902.636 960.08 912.069 962.154 921.612 963.593C942.108 966.683 963.178 966.867 983.777 964.725C1018.43 961.124 1054.99 949.862 1081.7 926.59C1093.31 916.481 1103.41 904.156 1108.72 889.519C1115.55 870.7 1114.54 850.169 1114.31 830.464C1113.78 784.641 1114.25 738.826 1113.61 692.997C1112.97 647.033 1113.53 601.43 1116.25 555.532ZM767.781 341.393C808.277 330.924 849.365 328.204 890.959 331.355C930.185 334.325 974.869 343.123 1006.9 367.309C1008.45 368.482 1007.53 370.703 1005.6 370.397C984.186 366.974 963.307 360.749 941.985 356.631C921.468 352.669 900.59 349.695 879.704 349.006C809.068 346.672 730.471 362.718 673.511 406.867C646.804 427.567 626.422 455.401 618.31 488.518C609.992 522.487 614.492 559.221 631.198 589.948C633.603 594.373 632.611 601.372 627.592 603.727C612.364 610.875 601.517 626.709 601.753 643.796C601.867 652.083 604.717 660.031 609.297 666.882C614.14 674.126 621.513 679.194 626.929 685.958C629.062 688.625 629.144 692.294 627.454 694.743C630.622 696.134 634.038 696.885 637.156 698.528C639.799 699.92 639.874 704.272 637.156 705.643C630.283 709.114 622.852 705.431 618.212 699.838C617.384 698.835 616.668 697.799 616.015 696.741C610.459 695.555 605.48 692.765 601.133 688.938C592.851 693.911 591.716 704.981 598.831 713.439C602.465 717.756 607.627 720.423 612.845 722.333L613.472 722.565C618.549 724.372 623.199 725.382 626.498 729.454C628.674 724.905 631.172 720.621 633.955 716.713C644.077 702.519 659.636 689.927 678.098 691.523C692.561 692.772 705.091 703.153 708.051 717.477C708.27 718.534 706.68 719.359 706.203 718.254C699.266 702.034 677.312 701.441 664.235 709.892C648.856 719.837 640.451 738.567 637.078 756.014C633.759 773.203 635.678 794.102 648.51 807.177C653.759 812.525 660.902 816.229 668.356 817.197C672 817.682 675.214 817.211 678.699 816.502L681.009 816.024C682.61 815.69 684.206 815.417 685.884 815.567L688.387 815.908L689.812 816.577C691.047 817.129 690.931 816.979 689.478 816.113C693.728 815.765 695.931 818.916 696.163 822.374C696.299 822.463 696.429 822.552 696.538 822.688C712.676 842.496 724.667 865.257 741.794 884.41L746.807 890.023C759.699 904.402 774.418 919.987 791.934 927.442L794.014 928.309C799.109 930.464 804.232 933.417 804.88 939.577C805.46 945.095 801.122 949.242 796.122 950.531C784.738 953.457 771.758 943.314 763.423 936.657C745.491 922.347 730.417 904.108 717.976 884.921L716.741 883.011C706.51 866.989 696.892 848.723 693.905 829.713L693.366 830.587C693.325 830.648 693.298 830.696 693.277 830.723C692.663 831.555 691.995 832.258 691.217 832.926C689.123 834.74 686.566 835.798 683.912 836.514C678.935 837.864 673.475 838.13 668.356 837.605C657.958 836.541 648.239 832.571 640.02 826.112C614.993 806.434 612.038 769.82 622.16 740.115C613.854 742.107 604.393 736.5 597.908 731.698C590.471 726.194 584.338 718.241 582.873 708.882C581.417 699.599 587.322 687.301 596.079 683.72C586.992 672.785 581.702 657.263 581.156 644.835C580.206 623.218 591.663 602.784 609.252 590.989C592.711 555.453 589.524 514.225 600.662 476.493C622.762 401.618 696.797 359.747 767.781 341.393ZM704.77 910.274L704.975 909.62C706.735 903.829 709.013 892.308 717.641 896.694C725.888 900.882 720.622 913.282 717.737 919.312C714.292 926.535 708.331 932.326 700.33 933.874C693.823 935.136 686.675 933.52 682.125 928.472C680.797 927.006 680.047 925.396 679.261 923.616C678.954 922.927 678.817 922.45 678.759 922.143C678.684 922.477 678.471 922.982 677.928 923.575C674.296 927.558 670.864 932.19 668.229 936.896C667.604 938.008 665.637 937.23 666.135 936.009C669.205 928.486 668.689 916.843 675.532 911.4C681.564 906.598 687.234 910.377 690.419 915.963L690.583 916.256C695.249 924.741 702.676 916.679 704.77 910.274ZM639.157 883.08L639.786 882.2C646.236 873.36 657.113 862.733 667.997 870.952C671.458 873.565 671.586 877.93 667.997 880.522L666.639 881.49C661.884 884.874 657.149 888.066 653.657 892.908C649.862 898.181 646.454 903.76 641.352 907.887C632.329 915.199 617.746 916.638 609.917 906.789L609.146 905.807C608.492 904.961 607.74 903.945 607.13 902.928L606.655 903.59C606.608 903.658 606.565 903.72 606.525 903.781L606.415 903.945C603.197 909.101 599.132 913.344 594.069 916.7C584.446 923.063 573.602 923.95 562.715 920.581C561.65 920.246 561.935 918.814 562.967 918.719C575.867 917.511 588.436 908.324 593.684 896.496L594.276 895.166C596.399 890.46 598.778 885.985 604.024 884.137C609.13 882.343 614.491 884.239 617.992 888.113C620.92 891.346 621.674 897.779 626.955 896.367C632.739 894.812 635.995 887.547 639.157 883.08ZM602.211 804.476C605.068 802.301 609.543 804.633 610.33 807.791C613.895 822.067 599.089 838.894 584.862 839.338C581.199 839.454 577.677 838.567 574.433 836.862C571.916 835.545 568.938 832.176 566.175 831.623C562.608 830.9 559.447 835.668 556.935 838.11C553.819 841.145 550.736 843.962 547.245 846.547C545.85 847.584 543.686 845.845 544.275 844.255L545.456 841.104C549.731 829.87 557.094 813.473 570.873 818.132C577.625 820.417 582.706 828.117 589.816 822.02C595.509 817.136 596.04 809.176 602.211 804.476ZM663.007 746.99C675.853 732.203 706.046 740.013 711.775 757.999C713.037 761.969 711.721 767.132 708.624 769.943C704.552 773.646 698.734 774.765 693.782 771.859C689.526 769.363 687.78 765.277 684.649 761.771C680.055 756.628 673.809 753.777 667.375 751.731C665.766 752.577 664.268 753.695 662.925 755.039C662.238 755.728 660.94 754.78 661.55 753.975C662.378 752.87 663.39 751.833 664.542 750.878L663.988 750.715C662.294 750.244 661.927 748.232 663.007 746.99ZM746.494 583.779C749.372 583.784 752.728 586.494 752.359 589.658L752.25 590.537C751.418 596.561 749.488 599.972 743.472 602.771C738.37 605.142 733.009 606.453 727.416 606.972C725.301 607.167 723.057 607.179 720.786 607.011L720.308 609.776C719.36 615.306 718.48 620.84 718.317 626.478C718.01 636.927 721.898 645.539 726.072 654.87C734.08 672.791 734.98 690.684 726.256 708.576C724.981 711.195 721.372 713.33 718.46 713.064C714.681 712.716 712.86 711.624 710.657 708.576C708.815 706.018 709.238 702.403 710.514 699.729L710.657 699.436C715.049 690.903 716.434 681.263 714.197 671.885C712.089 663.07 707.308 655.147 705.18 646.359C701.701 632.044 705.405 617.844 712.635 605.563C707.178 603.988 702.131 601.179 698.761 596.897L698.775 596.891C697.493 595.514 698.195 592.638 700.446 592.811L702.997 593.018C710.295 593.629 717.014 594.265 724.401 592.226C728.18 591.179 731.447 589.434 734.693 587.321L735.389 586.863C739.454 584.155 741.705 583.773 746.494 583.779ZM763.962 477.977C782.255 476.935 797.875 489.039 805.473 505.154C813.72 522.648 810.261 542.721 802.977 559.934L800.91 564.751C797.288 573.097 792.534 583.023 785.12 587.502C776.792 592.533 769.596 586.699 772.051 577.424C773.511 571.902 777.474 567.642 780.68 563.084C783.674 558.827 786.464 554.421 788.912 549.825C793.701 540.813 797.281 530.771 797.241 520.445C797.179 501.597 784.752 479.998 763.962 480.275C762.475 480.292 762.502 478.059 763.962 477.977ZM856.5 447.567C855.361 446.699 856.377 444.769 857.653 445.583C878.872 459.111 894.71 484.522 897.902 509.486C899.669 523.337 898.318 538.139 892.439 550.921C889.063 558.256 883.272 565.257 875.169 567.269C867.727 569.115 860.047 564.853 857.741 557.567C856.841 554.74 858.382 551.784 860.715 550.239C868.259 545.236 874.343 538.922 877.897 530.428C881.594 521.597 883.074 512.225 883.115 502.699C883.224 480.39 874.343 461.164 856.5 447.567ZM1115.68 457.235C1114.7 456.144 1115.93 454.535 1117.23 455.218C1132.57 463.305 1142.32 478.797 1145.11 495.763C1147.85 512.373 1144.17 534.985 1131.34 546.998C1124.1 553.779 1111.14 544.761 1117.16 536.026C1121.4 529.866 1125.98 524.794 1128.41 517.515C1130.57 511.02 1131.35 504.472 1131.23 497.647C1130.97 482.758 1125.66 468.335 1115.68 457.235ZM928.146 436.435C954.352 435.184 970.237 465.176 973.873 487.531C976.117 501.342 974.432 515.568 966.827 527.548L966.377 528.245C960.102 537.815 948.69 548.833 936.392 544.302C931.188 542.386 929.803 536.797 933.296 532.557C938.65 526.067 946.917 523.422 951.944 516.492C957.591 508.72 959.44 498.984 959.113 489.533L959.065 488.489C958.192 471.104 949.925 437.737 928.146 438.328C926.925 438.359 926.939 436.491 928.146 436.435ZM1010.11 431.453C1035.46 428.204 1050.9 458.1 1055.66 478.694C1058.64 491.569 1059.28 505.932 1055.48 518.71L1055.2 519.621C1052.1 529.157 1042.97 545.498 1031.04 540.623C1027.77 539.289 1024.44 535.652 1026 531.73C1028 526.718 1030.88 525.418 1034.73 522.211C1037.69 519.741 1039.76 516.196 1041.28 512.704C1045.33 503.399 1046.23 492.528 1045.68 482.5L1045.6 481.314C1044.17 461.727 1033.58 432.537 1010.11 433.075C1009.04 433.098 1009.12 431.579 1010.11 431.453ZM1056.52 403.347C1070.63 397.961 1082.19 411.485 1090.3 421.135C1100.46 433.229 1109.68 446.256 1114.89 461.311C1119.52 474.725 1120.34 489.64 1116.16 503.294C1114.09 510.056 1110.87 516.325 1106.47 521.844L1105.9 522.539C1101.33 528.137 1096.91 531.578 1089.4 529.573C1086.35 528.756 1085.06 525.73 1085.59 522.838C1086.72 516.66 1089.9 515.055 1094.01 510.742C1097.64 506.937 1100.33 502.252 1102.14 497.326C1105.87 487.164 1106.07 476.155 1103.56 465.686C1100.75 453.967 1095.24 443.144 1088.85 433.003L1087.47 430.83C1080.71 420.109 1071.06 403.598 1056.79 405.338C1055.57 405.487 1055.55 403.716 1056.52 403.347Z" fill="black"/>
<path fill-rule="evenodd" clip-rule="evenodd" d="M946.969 810.595C955.024 797.328 972.213 829.823 974.034 835.409C975.65 840.361 976.721 845.429 977.26 850.558C983.508 851.963 990.001 851.963 996.406 850.735C1005.92 848.907 1011.74 843.792 1020.01 839.399C1025.72 836.357 1032.92 839.918 1035.9 844.958C1039.39 850.885 1037.17 857.038 1032.57 861.458C1023.85 869.841 1006.7 871.764 995.322 869.54C988.801 868.265 982.826 865.816 977.553 862.263C977.519 862.931 977.492 863.593 977.444 864.254L977.342 865.4C976.469 874.697 973.911 886.388 966.695 892.438C954.86 902.355 940.25 883.278 951.75 873.367L952.112 873.067C959.26 867.29 960.815 851.786 960.433 843.246C960.181 837.674 959.164 832.026 957.405 826.719L957.043 825.662C956.518 824.161 950.741 809.933 948.653 811.748L948.558 811.85C947.698 812.88 946.307 811.679 946.969 810.595ZM1011.33 735.736C1022.21 742.359 1038.79 757.788 1027.09 774.192C1013.31 788.652 993.466 772.071 983.692 764.568C974.627 758.756 964.444 773.708 972.854 780.494C1043.5 832.817 1072.17 737.469 1016.83 727.96C1010.74 726.91 1008.48 733.69 1011.33 735.736ZM895.13 674.577C905.771 672.69 916.664 675.335 925.463 681.56L926.131 682.04C934.609 688.243 944.09 699.136 939.227 709.824C937.276 714.121 931.431 714.789 927.72 712.845C921.541 709.606 920.422 701.632 914.911 697.219C910.388 693.604 904.298 691.408 898.479 691.94C884.804 693.181 876.387 706.673 872.144 718.302C871.598 719.789 869.416 720.369 868.563 718.773C858.543 700.043 876.278 677.924 895.13 674.577ZM1065.47 667.509C1085.85 665.829 1109.69 686.96 1104.33 708.466C1101.75 718.793 1086.45 718.493 1083.73 708.466C1082.23 702.948 1082.38 698.071 1078.41 693.488C1075.14 689.709 1070.48 687.506 1065.47 687.847C1059.96 688.215 1054.87 690.978 1051.01 694.852C1047.51 698.351 1045.43 703.474 1041.81 706.57C1040.92 707.334 1039.73 707.382 1038.85 706.57C1032.62 700.834 1036.36 688.877 1040.3 682.881C1045.95 674.306 1055.15 668.361 1065.47 667.509ZM856.34 636.425C869.409 624.852 893.152 613.675 910.777 619.371C920.906 622.645 925.326 638.977 914.017 644.154C900.914 650.148 885.813 647.709 872.485 653.922C866.885 656.532 861.62 659.794 857.725 664.579C854.655 668.35 851.532 673.313 847.084 675.486C845.918 676.059 844.342 676.073 843.401 675.012C833.668 663.995 847.841 643.952 856.34 636.425ZM1043.01 618.796C1051.09 616.529 1060.05 616.575 1068.26 618C1076.46 619.424 1084.78 622.825 1091.48 627.785L1092.26 628.366C1099.57 633.877 1108.3 641.895 1107.82 651.658C1107.44 659.81 1098.86 665.324 1091.46 661.051C1085.43 657.567 1082.59 650.586 1077.49 645.938C1073.27 642.102 1068.32 639.078 1063.03 636.959C1057.17 634.605 1051.29 633.502 1044.99 633.397C1040.14 633.317 1035.26 634.908 1030.5 635.417C1030.9 636.221 1027.13 635.846 1024.98 635.133C1023.38 634.452 1023.38 632.433 1023.93 631.122C1026.68 624.631 1036.66 620.579 1043.01 618.796Z" fill="black"/>
<path fill-rule="evenodd" clip-rule="evenodd" d="M1012.91 791.905C996.884 784.682 968.107 790.985 957.664 793.488C933.375 799.32 908.936 811.911 901.386 831.637C892.88 853.873 909.857 860.871 912.354 859.725C929.167 860.912 949.193 850.339 966.811 847.611C981.115 845.374 996.202 843.423 1009.61 835.818C1019.39 841.206 1041.49 844.112 1059.32 848.825C1074.51 852.829 1081.09 861.519 1095.18 859.677C1112.05 857.46 1105.14 821.951 1086.34 807.566C1065.75 791.817 1030.93 785.432 1012.91 791.905ZM1044.64 943.737C1030.62 947.161 1029.68 916.42 1028.11 905.554C1026.88 897.069 1019.97 875.188 1002.42 876.136C984.873 877.077 978.277 895.412 979.164 906.816C979.743 914.21 986.558 951.663 964.813 956.403C950.953 956.349 934.917 955.414 920.341 952.727C903.186 948.839 880.882 935.232 874.989 962.031C872.868 971.675 948.436 1000.33 981.967 1002.92C1015.97 1009.82 1055.75 999.218 1079.97 973.19C1085.48 967.269 1100.99 942.694 1102.1 936.678C1104.41 924.025 1099.04 915.888 1083.39 920.342C1072.34 926.249 1053.66 941.541 1044.64 943.737Z" fill="black"/>
<path fill-rule="evenodd" clip-rule="evenodd" d="M1112.44 760.284C1090.82 770.706 1060.65 755.332 1046.1 739.235C1040.81 733.376 1036.73 716.604 1038.76 705.97C1044.28 677.165 1065 659.877 1086.88 653.974C1117.2 645.789 1147.72 666.524 1144.16 690.991C1140.79 714.182 1135.68 747.822 1112.44 760.284ZM965.242 704.953C963.51 736.343 938.314 763.817 908.193 771.961C859.669 785.508 835.687 751.383 824.829 714.619C823.744 710.969 821.207 699.817 828.021 690.255C854.799 652.636 919.952 659.049 952.487 669.376C962.016 678.488 965.911 691.639 965.242 704.953ZM1135.95 650.812C1135.93 650.832 1135.91 650.847 1135.9 650.866C1135.79 650.798 1135.68 650.729 1135.57 650.663C1135.69 650.715 1135.82 650.759 1135.95 650.812ZM1176.54 654.441C1173.73 622.481 1073.48 634.719 1061.76 637.338C1029.78 646.749 1002.16 672.351 966.395 661.097C929.337 619.776 804.564 631.626 778.406 652.675C773.454 650.731 767.431 651.774 761.054 653.608C728.293 652.424 578.74 663.722 609.329 705.547C613.972 708.773 618.611 705.492 618.739 698.856C778.208 641.269 762.752 695.207 781.66 688.911C784.552 689.743 787.56 690.268 790.199 690.821C804.837 695.534 809.809 694.074 811.733 710.512C824.979 837.448 993.951 793.638 980.091 689.518C993.808 688.768 1005.81 682.827 1020.32 688.624C1030.39 786.708 1109.29 790.664 1133.04 756.662C1150.95 733.069 1143.85 697.451 1168.46 678.888C1178.17 687.022 1178.8 659.571 1176.54 654.441Z" fill="black"/>
</svg>
